<?xml version="1.0" encoding="utf-8"?>
<!-- Generator: Adobe Illustrator 23.0.6, SVG Export Plug-In . SVG Version: 6.00 Build 0)  -->
<svg version="1.1" id="Layer_1" xmlns="http://www.w3.org/2000/svg" xmlns:xlink="http://www.w3.org/1999/xlink" x="0px" y="0px"
	 viewBox="0 0 841.89 595.28" style="enable-background:new 0 0 841.89 595.28;" xml:space="preserve">
<style type="text/css">
	.st0{fill:#FE9429;}
	.st1{fill:#65AF47;}
	.st2{fill:#8EC443;}
	.st3{fill:#FEBA00;}
	.st4{fill:#FBDC7F;}
	.st5{fill:#FBDC81;}
	.st6{fill:#FBDC80;}
	.st7{fill:#FBDD81;}
	.st8{fill:#FF9529;}
</style>
<g>
	<path class="st0" d="M419.12,188.25c9.66-0.17,18.84,0.92,27.89,2.75c19.4,3.93,37.27,11.6,53.43,23.07
		c11.11,7.88,20.96,17.12,28.99,28.18c7.86,10.82,14.14,22.47,18.77,35.04c3.69,10.04,6.03,20.39,7.65,30.92
		c0.48,3.11-2.07,6.48-5.67,7.63c-3.68,1.17-7.33,2.4-11.04,3.45c-4.09,1.15-8.82,0.01-9.74-6.03
		c-3.11-20.42-10.88-38.92-23.97-54.97c-11.21-13.75-24.92-24.31-41.24-31.5c-9.42-4.15-19.18-6.94-29.3-8.43
		c-9.02-1.33-18.08-1.4-27.19-0.39c-10.92,1.21-21.38,3.93-31.47,8.16c-17.3,7.27-31.84,18.3-43.62,32.85
		c-8.25,10.2-14.43,21.64-18.53,34.11c-1.77,5.38-3.23,10.88-4.08,16.54c-0.37,2.45-0.64,4.92-1.06,7.37
		c-0.89,5.22-4.47,7.11-9.28,5.96c-4.95-1.19-9.91-2.42-14.67-4.28c-2.44-0.95-3.78-2.85-3.96-5.51c-0.24-3.42,0.61-6.73,1.25-10.01
		c1.03-5.3,2.4-10.52,4.02-15.69c3.48-11.11,8.18-21.65,14.14-31.65c7.05-11.82,15.66-22.38,25.72-31.73
		c10.09-9.38,21.49-16.84,33.98-22.67c7.54-3.52,15.32-6.37,23.33-8.5c5.14-1.37,10.38-2.4,15.69-3.13
		C405.92,188.85,412.67,188.17,419.12,188.25z"/>
	<path class="st1" d="M464.17,111.03c-2.41,0.87-4.06,2.75-5.85,4.4c-15.49,14.17-26.52,31.3-33.59,51.02
		c-1.68,4.69-3.12,9.46-4.37,14.29c-0.11,0.42-0.11,1-0.6,1.08c-0.57,0.1-0.9-0.42-1.14-0.87c-0.54-0.97-0.83-2-0.81-3.15
		c0.45-18.29,2.6-36.27,9.63-53.37c6.86-16.69,17.44-30.59,31.52-41.85c10.4-8.31,22.13-14.03,35-17.32
		c12.11-3.09,24.46-3.72,36.91-3.33c9.85,0.3,19.59,1.52,29.31,3.02c4.35,0.67,8.67,1.46,13,2.23c0.98,0.17,1.82,0.67,2.12,1.69
		c0.3,1.03-0.38,1.66-1.14,2.16c-8.38,5.43-14.76,12.88-20.69,20.72c-7.07,9.35-13.03,19.47-19.44,29.27
		c-7.79,11.9-15.89,23.56-26.53,33.19c-15.16,13.72-32.9,21.35-53.36,22.63c-6.6,0.41-13.2,0.59-19.79,0.01
		c-3.72-0.33-4.89-1.98-3.85-5.62c6.41-22.5,17.44-42.44,33.27-59.7C463.9,111.37,464.03,111.19,464.17,111.03z"/>
	<path class="st2" d="M409.88,180.58c-6.65-18.55-16.37-34.89-31.78-47.48c1.86,2.37,3.73,4.74,5.58,7.12
		c7.76,10,12.92,21.34,17.04,33.2c0.19,0.55,0.25,1.15,0.32,1.73c0.31,2.74-0.08,3.39-2.81,3.97c-1.28,0.27-2.62,0.26-3.94,0.31
		c-6.68,0.28-13.37,0.26-19.95-1.08c-13.9-2.85-25.76-9.49-35.85-19.46c-7.76-7.67-13.53-16.81-19.52-25.79
		c-5.92-8.87-11.79-17.77-19.29-25.45c-1.95-2-4.05-3.82-6.34-5.39c-1.06-0.73-2.28-1.39-2.04-2.82c0.25-1.52,1.79-1.6,2.96-1.83
		c4.81-0.93,9.62-1.93,14.48-2.59c7.04-0.96,14.11-1.82,21.24-1.86c18.83-0.11,35.97,4.85,50.72,16.91
		c11.06,9.04,19,20.32,23.74,33.79c3.91,11.09,5.86,22.52,5.45,34.31C409.86,178.98,409.88,179.78,409.88,180.58z"/>
	<path class="st3" d="M520.9,314.86c0.18,3.8-0.88,7.01-4.62,8.59c-2.07,0.88-4.39,1.16-6.65,1.09c-7.34-0.2-14.67-0.13-22,0.01
		c-5.56,0.11-11.13-0.55-16.7-0.19c-7.78,0.51-15.54,0.21-23.29-0.51c-2.58-0.24-4.93-1-6.25-3.62c-1.46-2.89,0.14-5.04,1.68-7.1
		c4.26-5.7,9.55-10.46,14.44-15.59c10.73-11.27,21.55-22.45,32.48-33.52c3.34-3.39,6.57-3.88,9.91,0.32
		c6.3,7.92,11.08,16.68,14.86,26.05c2.7,6.71,4.36,13.69,5.84,20.72C520.85,312.35,520.8,313.62,520.9,314.86z"/>
	<path class="st3" d="M376.53,324.69c-17.07-0.44-33.72-0.53-50.38-0.29c-1.77,0.03-3.56-0.17-5.18-0.8
		c-3.12-1.21-4.61-4.56-4.14-8.46c1.74-14.6,6.57-28.1,14.15-40.67c2.05-3.4,4.19-6.74,6.62-9.87c3.14-4.07,6.21-4.33,9.85-0.63
		c13.68,13.94,27.34,27.91,40.88,41.98c2.34,2.43,4.81,4.77,6.7,7.64c3.66,5.54,0.9,9.49-5.08,10.23
		C385.37,324.39,380.73,324.43,376.53,324.69z"/>
	<path class="st3" d="M413.87,234.74c-0.77,7.82-0.37,15.3-0.4,22.78c-0.06,13.85-0.13,27.71-0.08,41.56
		c0.01,3.63-2.12,7.08-6.73,7.76c-2.17,0.32-4.09-1.19-5.63-2.76c-6.49-6.6-12.93-13.25-19.41-19.87
		c-8.34-8.52-16.7-17.02-25.03-25.56c-1.1-1.13-2.2-2.33-3.01-3.67c-1.6-2.65-1.91-5.21,0.94-7.85c5.45-5.04,11.75-8.83,18.27-12.28
		c5.11-2.71,10.39-5.08,15.94-6.64c6.06-1.71,12.08-3.91,18.59-3.14c2.87,0.34,5.25,2.25,5.87,5.02
		C413.56,231.74,413.69,233.43,413.87,234.74z"/>
	<path class="st3" d="M424.39,267.11c0-9.75-0.01-19.51,0.01-29.26c0-1.98,0.24-3.96,0.18-5.93c-0.16-5.63,4.07-8.49,9.52-7.36
		c3.62,0.75,7.27,1.31,10.87,2.24c6.71,1.73,13.07,4.25,19.2,7.36c5.8,2.94,11.25,6.49,16.37,10.53c1.81,1.43,3.65,2.91,4.09,5.4
		c0.47,2.64-0.39,4.89-2.2,6.78c-9.02,9.39-18.05,18.78-27.09,28.15c-6.08,6.29-12.19,12.55-18.28,18.83
		c-3.44,3.54-5.85,4.01-9.5,1.62c-2.11-1.38-2.86-3.54-2.86-6c0-10.79,0-21.58,0-32.37C424.6,267.11,424.5,267.11,424.39,267.11z"/>
	<path class="st4" d="M514.46,312.32c2.01,1.08,0.65,3.62,1.76,5.19c0.47,0.66-0.34,1.15-1.1,1.14c-4.61-0.03-9.22-0.07-13.83-0.11
		c-0.46,0-0.9-0.15-1.01-0.66c-0.11-0.53,0.26-0.77,0.71-0.93c4.09-1.47,8.18-2.96,12.27-4.42
		C513.52,312.43,513.83,312.42,514.46,312.32z"/>
	<path class="st5" d="M352.85,278.13c-2.12-0.95-4.25-1.89-6.36-2.87c-2.37-1.09-4.7-2.27-7.1-3.3c-1.23-0.53-1.17-1.11-0.4-1.95
		c0.05-0.05,0.11-0.1,0.15-0.16c3.14-4.37,3.13-4.37,6.69-0.41c2.46,2.74,4.92,5.46,7.38,8.19
		C353.09,277.8,352.97,277.96,352.85,278.13z"/>
	<path class="st6" d="M408.91,237.67c-0.19,2.84,0.16,5.42-0.42,7.95c-0.1,0.41-0.02,0.96-0.64,0.94c-0.39-0.02-0.54-0.4-0.67-0.77
		c-1.52-4.22-3.04-8.44-4.62-12.64c-0.48-1.28-0.1-1.79,1.21-1.8c0.44,0,0.88-0.05,1.31-0.15c3.9-0.93,3.89-0.94,3.84,3.01
		C408.9,235.47,408.91,236.72,408.91,237.67z"/>
	<path class="st7" d="M480.2,249.84c-0.14,0.15-0.37,0.42-0.62,0.67c-3.2,3.07-6.4,6.15-9.6,9.22c-0.34,0.33-0.63,1-1.22,0.55
		c-0.55-0.42-0.03-0.96,0.15-1.38c1.73-3.96,3.49-7.91,5.25-11.86c0.55-1.25,1.25-1.61,2.41-0.58c0.91,0.81,1.96,1.44,2.93,2.19
		C479.82,248.9,480.26,249.13,480.2,249.84z"/>
</g>
<g>
	<path class="st8" d="M376.74,454.95c0,12.46-4.4,23.14-13.2,32.04c-8.8,8.9-19.74,13.35-32.81,13.35
		c-12.87,0-23.74-4.45-32.61-13.35c-8.87-8.9-13.3-19.58-13.3-32.04v-31.12h34.61v31.12c0,3.29,1.11,6.08,3.34,8.37
		c2.22,2.29,4.88,3.44,7.96,3.44c3.15,0,5.84-1.15,8.06-3.44c2.22-2.29,3.34-5.08,3.34-8.37V337.87h34.61V454.95z M370.78,454.95
		V342.8h-22.6v112.16c0,4.38-1.66,8.25-4.98,11.61c-3.32,3.35-7.48,5.03-12.48,5.03c-4.93,0-9.02-1.68-12.27-5.03
		c-3.25-3.36-4.88-7.22-4.88-11.61v-26.19h-22.8v26.19c0,11.23,3.9,20.78,11.71,28.66c7.81,7.87,17.22,11.81,28.24,11.81
		c11.09,0,20.54-3.94,28.35-11.81C366.88,475.73,370.78,466.18,370.78,454.95z"/>
	<path class="st8" d="M465.09,335.81c0,9.52-2.96,17.48-8.88,23.88c-5.92,6.4-13.51,9.6-22.75,9.6H389.6
		c0-9.59,3.01-17.56,9.04-23.93c6.02-6.37,13.56-9.55,22.6-9.55H465.09z M459.13,340.74h-37.9c-6.78,0-12.72,2.36-17.82,7.09
		c-5.1,4.72-7.65,10.24-7.65,16.54h37.69c6.85,0,12.84-2.36,17.97-7.09C456.57,352.55,459.13,347.04,459.13,340.74z M436.54,457.21
		h-34.61v-84.32h34.61V457.21z M430.48,452.39v-74.46h-22.7v74.46H430.48z"/>
	<path class="st8" d="M504.35,457.21h-5.65v4.72c0,10.82-3.89,19.92-11.66,27.32c-7.77,7.4-17.82,11.09-30.14,11.09v-33.58
		c4.79,0,7.19-1.61,7.19-4.83V380.8h34.61v38.21c0,3.22,1.88,4.83,5.65,4.83v4.93c-3.97,0-6.88-0.98-8.73-2.93
		c-1.85-1.95-2.77-4.23-2.77-6.83v-33.28h-22.8v76.21c0,5.55-2.4,8.63-7.19,9.24v24.24c7.74,0,14.67-3.27,20.8-9.81
		c6.13-6.54,9.19-14.43,9.19-23.67v-9.55h11.5V457.21z M498.7,354.61c0,4.59-1.66,8.52-4.98,11.81c-3.32,3.29-7.45,4.93-12.38,4.93
		c-5,0-9.12-1.64-12.38-4.93c-3.25-3.29-4.88-7.22-4.88-11.81c0-4.59,1.63-8.52,4.88-11.81c3.25-3.29,7.38-4.93,12.38-4.93
		c4.93,0,9.05,1.64,12.38,4.93C497.04,346.08,498.7,350.02,498.7,354.61z M492.85,354.61c0-3.42-1.15-6.25-3.44-8.47
		c-2.29-2.22-4.98-3.34-8.06-3.34c-3.01,0-5.65,1.11-7.91,3.34c-2.26,2.23-3.39,5.05-3.39,8.47c0,3.42,1.13,6.25,3.39,8.47
		c2.26,2.23,4.89,3.34,7.91,3.34c3.08,0,5.77-1.11,8.06-3.34C491.7,360.86,492.85,358.03,492.85,354.61z"/>
	<path class="st8" d="M555.91,354.61c0,4.59-1.66,8.52-4.98,11.81c-3.32,3.29-7.48,4.93-12.48,4.93c-4.93,0-9-1.61-12.22-4.83
		c-1.58-1.57-2.26-2.16-2.05-1.75c0.21-0.41-0.45,0.1-1.95,1.54c-3.36,3.36-7.5,5.03-12.43,5.03c-4.86,0-8.95-1.64-12.27-4.93
		c-3.32-3.29-4.98-7.22-4.98-11.81c0-4.59,1.66-8.52,4.98-11.81c3.32-3.29,7.41-4.93,12.27-4.93c4.93,0,9.04,1.64,12.33,4.93
		c1.57,1.58,2.26,2.16,2.05,1.75c-0.21,0.41,0.44-0.1,1.95-1.54c3.29-3.42,7.39-5.14,12.32-5.14c5,0,9.16,1.64,12.48,4.93
		C554.25,346.08,555.91,350.02,555.91,354.61z M521.29,354.61c0-3.42-1.15-6.25-3.44-8.47c-2.29-2.22-4.98-3.34-8.06-3.34
		c-3.01,0-5.62,1.11-7.81,3.34c-2.19,2.23-3.29,5.05-3.29,8.47c0,3.42,1.1,6.25,3.29,8.47c2.19,2.23,4.79,3.34,7.81,3.34
		c3.08,0,5.77-1.11,8.06-3.34C520.15,360.86,521.29,358.03,521.29,354.61z M541.53,419.01c0,10.68-3.73,19.72-11.19,27.11
		c-7.46,7.4-17.15,11.09-29.07,11.09v-4.83c9.93,0,18.14-3.22,24.65-9.65c6.5-6.44,9.76-14.34,9.76-23.73v-33.28h-22.9v33.28
		c0,6.51-3.83,9.76-11.5,9.76v-4.93c3.76,0,5.65-1.61,5.65-4.83V380.8h34.61V419.01z M549.85,354.61c0-3.42-1.11-6.25-3.34-8.47
		c-2.23-2.22-4.91-3.34-8.06-3.34c-3.08,0-5.75,1.13-8.01,3.39c-2.05,2.05-3.15,4.66-3.29,7.81v0.62c0,3.42,1.11,6.25,3.34,8.47
		c2.22,2.23,4.88,3.34,7.96,3.34c3.15,0,5.84-1.11,8.06-3.34C548.73,360.86,549.85,358.03,549.85,354.61z"/>
</g>
</svg>
